<svg width="241" height="28" viewBox="0 0 241 28" fill="none" xmlns="http://www.w3.org/2000/svg">
<g clip-path="url(#clip0_1_552)">
<path d="M54.7 0H0V28H54.7V0Z" fill="#02B0BB"/>
<path d="M116.4 0H61.7V28H116.4V0Z" fill="#8CC89E"/>
<path d="M178.3 0H123.6V28H178.3V0Z" fill="#FFDD35"/>
<path d="M240 0H185.3V28H240V0Z" fill="#9BD5E4"/>
<path d="M26.0807 22.9814L18.5447 6.06144H21.8327L27.4247 19.0454L33.0167 6.06144H36.1847L28.6487 22.9814H26.0807Z" fill="#1E1E1E"/>
<path d="M83.7956 22.9814V6.06144H95.0516V8.50944H86.7476V13.1654H94.5236V15.6134H86.7476V20.5334H95.0516V22.9814H83.7956Z" fill="#1E1E1E"/>
<path d="M142.734 22.9814L149.19 14.3654L142.974 6.06144H146.55L150.942 12.1334L155.334 6.06144H158.934L152.718 14.3654L159.15 22.9814H155.55L150.942 16.6454L146.358 22.9814H142.734Z" fill="#1E1E1E"/>
<path d="M203.785 22.9814L211.441 6.06144H213.961L221.617 22.9814H218.497L216.817 19.0694H208.561L206.905 22.9814H203.785ZM212.665 9.39744L209.617 16.6214H215.761L212.713 9.39744H212.665Z" fill="#1E1E1E"/>
</g>
<defs>
<clipPath id="clip0_1_552">
<rect width="240.1" height="28" fill="white"/>
</clipPath>
</defs>
</svg>
