<svg width="38" height="38" viewBox="0 0 38 38" fill="none" xmlns="http://www.w3.org/2000/svg">
<path d="M12.667 8.70837L13.1801 5.62958C13.3409 4.6652 14.1752 3.95837 15.1529 3.95837L22.8477 3.95837C23.8254 3.95837 24.6598 4.6652 24.8205 5.62958L25.3337 8.70837" stroke="#121219" stroke-width="2" stroke-linecap="round"/>
<path d="M12.6663 7.70837C13.2186 7.70837 13.6663 8.15609 13.6663 8.70837C13.6663 9.26066 13.2186 9.70837 12.6663 9.70837V7.70837ZM25.333 9.70837C24.7807 9.70837 24.333 9.26066 24.333 8.70837C24.333 8.15609 24.7807 7.70837 25.333 7.70837V9.70837ZM35.833 10.7084V32.0417H33.833V10.7084H35.833ZM2.16634 32.0417V10.7084H4.16634V32.0417H2.16634ZM5.16634 33.0417H32.833V35.0417H5.16634V33.0417ZM5.16634 7.70837H12.6663V9.70837H5.16634V7.70837ZM25.333 7.70837H32.833V9.70837H25.333V7.70837ZM2.16634 10.7084C2.16634 9.05152 3.50949 7.70837 5.16634 7.70837V9.70837C4.61406 9.70837 4.16634 10.1561 4.16634 10.7084H2.16634ZM4.16634 32.0417C4.16634 32.594 4.61406 33.0417 5.16634 33.0417V35.0417C3.50949 35.0417 2.16634 33.6986 2.16634 32.0417H4.16634ZM35.833 32.0417C35.833 33.6986 34.4899 35.0417 32.833 35.0417V33.0417C33.3853 33.0417 33.833 32.594 33.833 32.0417H35.833ZM33.833 10.7084C33.833 10.1561 33.3853 9.70837 32.833 9.70837V7.70837C34.4899 7.70837 35.833 9.05152 35.833 10.7084H33.833Z" fill="#121219"/>
<path d="M25.6668 21.507C25.6668 17.8148 22.6821 14.8218 19.0002 14.8218C15.3183 14.8218 12.3335 17.8148 12.3335 21.507C12.3335 25.1991 15.3183 28.1921 19.0002 28.1921C22.6821 28.1921 25.6668 25.1991 25.6668 21.507Z" stroke="#121219" stroke-width="2"/>
</svg>
