<svg width="70" height="70" viewBox="0 0 70 70" fill="none" xmlns="http://www.w3.org/2000/svg">
<g filter="url(#filter0_d_307_260)">
<circle cx="35" cy="32" r="15" fill="url(#paint0_linear_307_260)"/>
</g>
<path d="M27.0503 39L27.0503 25.7H28.5503L28.5503 39H27.0503ZM42.0503 25.7V39H40.5503V25.7H42.0503ZM39.3003 41.75H29.8003V40.25H39.3003V41.75ZM42.0503 39C42.0503 40.5188 40.8191 41.75 39.3003 41.75V40.25C39.9906 40.25 40.5503 39.6904 40.5503 39H42.0503ZM28.5503 39C28.5503 39.6904 29.1099 40.25 29.8003 40.25V41.75C28.2815 41.75 27.0503 40.5188 27.0503 39H28.5503Z" fill="white"/>
<path d="M32.75 31.1001V35.6001" stroke="white" stroke-width="1.5" stroke-linecap="round"/>
<path d="M36.3501 31.1001V35.6001" stroke="white" stroke-width="1.5" stroke-linecap="round"/>
<path d="M26 25.7001H43.1" stroke="white" stroke-width="1.5" stroke-linecap="round"/>
<path d="M30.0503 25.7L30.2218 24.6712C30.3825 23.7068 31.2169 23 32.1945 23H34.5503H36.906C37.8837 23 38.7181 23.7068 38.8788 24.6712L39.0503 25.7" stroke="white" stroke-width="1.5" stroke-linecap="round"/>
<defs>
<filter id="filter0_d_307_260" x="0" y="0" width="70" height="70" filterUnits="userSpaceOnUse" color-interpolation-filters="sRGB">
<feFlood flood-opacity="0" result="BackgroundImageFix"/>
<feColorMatrix in="SourceAlpha" type="matrix" values="0 0 0 0 0 0 0 0 0 0 0 0 0 0 0 0 0 0 127 0" result="hardAlpha"/>
<feOffset dy="3"/>
<feGaussianBlur stdDeviation="10"/>
<feComposite in2="hardAlpha" operator="out"/>
<feColorMatrix type="matrix" values="0 0 0 0 0 0 0 0 0 0 0 0 0 0 0 0 0 0 0.05 0"/>
<feBlend mode="normal" in2="BackgroundImageFix" result="effect1_dropShadow_307_260"/>
<feBlend mode="normal" in="SourceGraphic" in2="effect1_dropShadow_307_260" result="shape"/>
</filter>
<linearGradient id="paint0_linear_307_260" x1="35" y1="17" x2="35" y2="47" gradientUnits="userSpaceOnUse">
<stop stop-color="#B2B2B2"/>
<stop offset="1" stop-color="#8F9090"/>
</linearGradient>
</defs>
</svg>
