<svg width="38" height="29" viewBox="0 0 38 29" fill="none" xmlns="http://www.w3.org/2000/svg">
<path d="M0 24.0946C0 17.6982 0 11.3018 0 4.91285C0.0223048 4.84576 0.0594796 4.77866 0.0669145 4.71157C0.527881 2.35578 1.91078 0.857326 4.18587 0.171465C4.41636 0.10437 4.66171 0.0596401 4.89219 0C14.29 0 23.6877 0 33.0929 0C33.1599 0.022365 33.2268 0.0596401 33.2937 0.0670951C36 0.506941 37.9777 2.81054 37.9851 5.56144C37.9926 11.518 38 17.482 37.9851 23.4386C37.9777 26.5175 35.5093 28.9925 32.4387 28.9925C23.4796 29 14.513 29 5.5539 28.9925C3.01859 28.9925 0.832714 27.2853 0.178439 24.8326C0.118959 24.5941 0.0594796 24.3406 0 24.0946ZM19.0335 2.22905C14.6097 2.22905 10.1784 2.22905 5.75465 2.22905C3.65799 2.22905 2.23048 3.65296 2.23048 5.74781C2.23048 11.5851 2.23048 17.4224 2.23048 23.2596C2.23048 25.347 3.65799 26.771 5.75465 26.771C14.5874 26.771 23.4126 26.771 32.2454 26.771C34.3569 26.771 35.7695 25.347 35.7695 23.2224C35.7695 17.4075 35.7695 11.6 35.7695 5.78509C35.7695 3.6455 34.3569 2.2365 32.2082 2.2365C27.8141 2.22905 23.4201 2.22905 19.0335 2.22905Z" fill="#383638"/>
<path d="M14.5427 14.4851C14.5427 12.6884 14.5502 10.8918 14.5427 9.09509C14.5427 8.61052 14.6766 8.2154 15.1078 7.96193C15.5539 7.70101 15.9777 7.80538 16.394 8.0663C19.2639 9.87041 22.1338 11.6596 25.0037 13.4637C25.9108 14.0303 25.9108 14.9771 25.0111 15.5437C22.1412 17.3478 19.2713 19.137 16.4015 20.9411C15.9851 21.202 15.5613 21.3064 15.1152 21.0455C14.684 20.792 14.5427 20.3969 14.5502 19.9123C14.5502 18.1007 14.5427 16.2892 14.5427 14.4851ZM16.7881 18.056C18.7063 16.8558 20.5576 15.6928 22.4684 14.5C20.5502 13.2997 18.6914 12.1293 16.7881 10.9439C16.7881 13.3445 16.7881 15.6704 16.7881 18.056Z" fill="#383638"/>
</svg>
