<svg width="211" height="71" viewBox="0 0 211 71" fill="none" xmlns="http://www.w3.org/2000/svg">
<ellipse cx="2.39806" cy="2.5" rx="2.39812" ry="2.5" fill="#FFDD35"/>
<ellipse cx="2.39806" cy="46.2843" rx="2.39812" ry="2.5" fill="#FFDD35"/>
<ellipse cx="40.0532" cy="2.5" rx="2.39812" ry="2.5" fill="#FFDD35"/>
<ellipse cx="40.0532" cy="46.2843" rx="2.39812" ry="2.5" fill="#FFDD35"/>
<ellipse cx="77.7084" cy="2.5" rx="2.39812" ry="2.5" fill="#FFDD35"/>
<ellipse cx="77.7084" cy="46.2843" rx="2.39812" ry="2.5" fill="#FFDD35"/>
<ellipse cx="2.39806" cy="24.3921" rx="2.39812" ry="2.5" fill="#FFDD35"/>
<ellipse cx="2.39806" cy="68.1764" rx="2.39812" ry="2.5" fill="#FFDD35"/>
<ellipse cx="40.0532" cy="24.3921" rx="2.39812" ry="2.5" fill="#FFDD35"/>
<ellipse cx="40.0532" cy="68.1764" rx="2.39812" ry="2.5" fill="#FFDD35"/>
<ellipse cx="77.7084" cy="24.3921" rx="2.39812" ry="2.5" fill="#FFDD35"/>
<ellipse cx="77.7084" cy="68.1764" rx="2.39812" ry="2.5" fill="#FFDD35"/>
<ellipse cx="21.2256" cy="2.5" rx="2.39812" ry="2.5" fill="#FFDD35"/>
<ellipse cx="21.2256" cy="46.2843" rx="2.39812" ry="2.5" fill="#FFDD35"/>
<ellipse cx="58.8808" cy="2.5" rx="2.39812" ry="2.5" fill="#FFDD35"/>
<ellipse cx="58.8808" cy="46.2843" rx="2.39812" ry="2.5" fill="#FFDD35"/>
<ellipse cx="96.536" cy="2.5" rx="2.39812" ry="2.5" fill="#FFDD35"/>
<ellipse cx="96.536" cy="46.2843" rx="2.39812" ry="2.5" fill="#FFDD35"/>
<ellipse cx="21.2256" cy="24.3921" rx="2.39812" ry="2.5" fill="#FFDD35"/>
<ellipse cx="21.2256" cy="68.1764" rx="2.39812" ry="2.5" fill="#FFDD35"/>
<ellipse cx="58.8808" cy="24.3921" rx="2.39812" ry="2.5" fill="#FFDD35"/>
<ellipse cx="58.8808" cy="68.1764" rx="2.39812" ry="2.5" fill="#FFDD35"/>
<ellipse cx="96.536" cy="24.3921" rx="2.39812" ry="2.5" fill="#FFDD35"/>
<ellipse cx="96.536" cy="68.1764" rx="2.39812" ry="2.5" fill="#FFDD35"/>
<ellipse cx="114.23" cy="2.62469" rx="2.5" ry="2.62469" fill="#FFDD35"/>
<ellipse cx="114.23" cy="46.4091" rx="2.5" ry="2.62469" fill="#FFDD35"/>
<ellipse cx="151.62" cy="2.62469" rx="2.5" ry="2.62469" fill="#FFDD35"/>
<ellipse cx="151.62" cy="46.4091" rx="2.5" ry="2.62469" fill="#FFDD35"/>
<ellipse cx="189.01" cy="2.62469" rx="2.5" ry="2.62469" fill="#FFDD35"/>
<ellipse cx="189.01" cy="46.4091" rx="2.5" ry="2.62469" fill="#FFDD35"/>
<ellipse cx="114.23" cy="24.5168" rx="2.5" ry="2.62469" fill="#FFDD35"/>
<ellipse cx="114.23" cy="68.301" rx="2.5" ry="2.62469" fill="#FFDD35"/>
<ellipse cx="151.62" cy="24.5168" rx="2.5" ry="2.62469" fill="#FFDD35"/>
<ellipse cx="151.62" cy="68.301" rx="2.5" ry="2.62469" fill="#FFDD35"/>
<ellipse cx="189.01" cy="24.5168" rx="2.5" ry="2.62469" fill="#FFDD35"/>
<ellipse cx="189.01" cy="68.301" rx="2.5" ry="2.62469" fill="#FFDD35"/>
<ellipse cx="132.925" cy="2.62469" rx="2.5" ry="2.62469" fill="#FFDD35"/>
<ellipse cx="132.925" cy="46.4091" rx="2.5" ry="2.62469" fill="#FFDD35"/>
<ellipse cx="170.315" cy="2.62469" rx="2.5" ry="2.62469" fill="#FFDD35"/>
<ellipse cx="170.315" cy="46.4091" rx="2.5" ry="2.62469" fill="#FFDD35"/>
<ellipse cx="207.705" cy="2.62469" rx="2.5" ry="2.62469" fill="#FFDD35"/>
<ellipse cx="207.705" cy="46.4091" rx="2.5" ry="2.62469" fill="#FFDD35"/>
<ellipse cx="132.925" cy="24.5168" rx="2.5" ry="2.62469" fill="#FFDD35"/>
<ellipse cx="132.925" cy="68.301" rx="2.5" ry="2.62469" fill="#FFDD35"/>
<ellipse cx="170.315" cy="24.5168" rx="2.5" ry="2.62469" fill="#FFDD35"/>
<ellipse cx="170.315" cy="68.301" rx="2.5" ry="2.62469" fill="#FFDD35"/>
<ellipse cx="207.705" cy="24.5168" rx="2.5" ry="2.62469" fill="#FFDD35"/>
<ellipse cx="207.705" cy="68.301" rx="2.5" ry="2.62469" fill="#FFDD35"/>
</svg>
