<svg width="40" height="40" viewBox="0 0 40 40" fill="none" xmlns="http://www.w3.org/2000/svg">
<g clip-path="url(#clip0_3_1082)">
<path d="M0 34.7423C0.133528 33.7158 0.191947 32.6726 0.40893 31.6545C1.89443 24.5524 7.85312 19.8623 15.097 20.0792C17.9178 20.1627 20.4799 21.0557 22.7916 22.6747C22.8834 22.7415 22.9752 22.7999 23.067 22.8666C23.0837 22.875 23.117 22.875 23.2005 22.8833C23.2005 22.3826 23.2005 21.8902 23.2005 21.3978C23.2088 20.6384 23.5093 20.338 24.2604 20.338C27.0227 20.338 29.7851 20.338 32.5475 20.338C33.3069 20.338 33.5907 20.63 33.599 21.4062C33.599 22.0237 33.599 22.6497 33.599 23.3256C33.7909 23.3256 33.9412 23.3256 34.0914 23.3256C35.7188 23.3256 37.3378 23.334 38.9652 23.3256C39.3657 23.3256 39.7163 23.3924 39.9165 23.7763C40.1001 24.1352 40 24.469 39.7914 24.7945C39.2155 25.7041 38.648 26.6305 38.0638 27.5401C37.9136 27.7738 37.8969 27.9324 38.0638 28.166C38.648 28.9922 39.1905 29.8435 39.7663 30.678C39.9917 31.0119 40.1001 31.354 39.9082 31.7296C39.7079 32.1218 39.3574 32.1802 38.9568 32.1802C35.8022 32.1719 32.656 32.1802 29.5014 32.1802C28.7169 32.1802 28.4164 31.8881 28.4164 31.1037C28.4164 30.5612 28.4164 30.0187 28.4164 29.4512C27.2564 29.4512 26.1131 29.4512 24.9113 29.4512C24.9113 29.5848 24.9113 29.735 24.9113 29.8852C24.9113 32.706 24.9113 35.5184 24.9113 38.3392C24.9113 38.4811 24.9197 38.6146 24.903 38.7565C24.8613 39.2155 24.5191 39.5326 24.0851 39.541C23.6261 39.5576 23.2422 39.2489 23.2255 38.7648C23.1922 38.0054 23.2088 37.2376 23.2088 36.4782C23.2088 36.3113 23.2088 36.1527 23.2088 35.944C22.9835 35.944 22.8083 35.944 22.633 35.944C15.4726 35.9607 8.31212 35.9774 1.15168 36.0025C0.50073 36.0025 0.300438 35.8606 0.0250365 35.193C0 35.0177 0 34.8842 0 34.7423ZM1.78594 34.2082C8.92134 34.2082 16.0317 34.2082 23.1588 34.2082C23.1755 34.0663 23.1922 33.9578 23.1922 33.8493C23.1922 31.0786 23.2005 28.2996 23.1838 25.5289C23.1838 25.3453 23.0586 25.1032 22.9084 24.9781C19.7288 22.199 16.0234 21.2393 11.9174 22.0488C5.90027 23.2338 2.06134 28.4414 1.78594 34.2082ZM31.8548 27.6653C31.8548 25.8043 31.8548 23.9599 31.8548 22.0905C29.5431 22.0905 27.2397 22.0905 24.9364 22.0905C24.9364 23.9683 24.9364 25.8126 24.9364 27.6653C27.2481 27.6653 29.5347 27.6653 31.8548 27.6653ZM30.1523 30.436C32.6059 30.436 35.0344 30.436 37.5381 30.436C37.0791 29.7517 36.6701 29.1174 36.2278 28.4999C35.9274 28.0826 35.9274 27.6987 36.2111 27.2731C36.6368 26.6388 37.029 25.9879 37.4296 25.3369C37.4797 25.2535 37.513 25.1533 37.5548 25.0532C36.2195 25.0532 34.9176 25.0532 33.5907 25.0532C33.5907 25.2368 33.5907 25.387 33.5907 25.5372C33.5907 26.4385 33.5907 27.3398 33.5907 28.2411C33.5907 29.1174 33.3153 29.3928 32.4557 29.3928C31.9049 29.3928 31.3457 29.3928 30.7949 29.3928C30.5779 29.3928 30.3693 29.3928 30.1523 29.3928C30.1523 29.7851 30.1523 30.1022 30.1523 30.436Z" fill="white"/>
<path d="M14.4878 18.0263C9.49719 18.0263 5.46631 13.9871 5.47465 8.99647C5.47465 4.00586 9.50553 -0.00833252 14.5045 1.29891e-05C19.5034 0.00835849 23.5176 4.04758 23.5009 9.04654C23.4843 14.0205 19.4617 18.0346 14.4878 18.0263ZM14.4711 16.3322C18.502 16.3405 21.7901 13.0691 21.8068 9.04654C21.8235 5.00732 18.5187 1.69415 14.4878 1.69415C10.4653 1.69415 7.17714 4.99062 7.16879 9.00481C7.16044 13.0357 10.4402 16.3238 14.4711 16.3322Z" fill="white"/>
</g>
<defs>
<clipPath id="clip0_3_1082">
<rect width="40" height="39.516" fill="white"/>
</clipPath>
</defs>
</svg>
