<svg width="40" height="37" viewBox="0 0 40 37" fill="none" xmlns="http://www.w3.org/2000/svg">
<g clip-path="url(#clip0_3_1036)">
<path d="M0 17.3385C0.187867 16.9236 0.53229 16.8219 0.962818 16.8297C3.64775 16.8375 6.32485 16.8297 9.00978 16.8297C9.16634 16.8297 9.31507 16.8297 9.51859 16.8297C9.51859 16.3444 9.54207 15.906 9.51076 15.4677C9.47162 14.9276 9.68297 14.6144 10.1526 14.3483C13.0881 12.7279 16.0078 11.0685 18.9354 9.44028C19.2094 9.29155 19.3112 9.12717 19.3112 8.80623C19.2955 6.23871 19.3033 3.67903 19.3033 1.11151C19.3033 1.00975 19.3033 0.900162 19.3033 0.7984C19.319 0.30525 19.5773 0.00779366 19.9765 -0.00786191C20.3914 -0.0235175 20.6732 0.289594 20.6888 0.7984C20.6967 1.01758 20.6888 1.23676 20.6888 1.51856C20.8532 1.51856 20.9941 1.51856 21.1272 1.51856C22.5362 1.51856 23.9374 1.51856 25.3464 1.51856C26.1057 1.51856 26.317 1.73773 26.317 2.49703C26.317 2.71621 26.317 2.93539 26.317 3.20153C27.0842 3.20153 27.82 3.20153 28.5558 3.20153C29.4638 3.20153 29.7847 3.6164 29.4012 4.43049C28.9863 5.30721 28.9472 6.12912 29.4012 6.98235C29.4795 7.13108 29.5186 7.30329 29.5421 7.46768C29.589 7.85906 29.362 8.14087 28.9706 8.21132C28.9472 8.21914 28.9159 8.22697 28.8924 8.22697C27.0059 8.22697 25.1194 8.2348 23.2329 8.21914C22.8102 8.21914 22.5832 7.93734 22.5675 7.50681C22.5519 7.20153 22.5675 6.88842 22.5675 6.55182C21.9335 6.55182 21.3386 6.55182 20.6967 6.55182C20.6967 7.41288 20.6888 8.26611 20.7123 9.11934C20.7123 9.2211 20.908 9.33852 21.0333 9.40897C23.9687 11.0606 26.8963 12.7201 29.8474 14.3561C30.317 14.6144 30.544 14.9276 30.4971 15.4677C30.4579 15.906 30.4892 16.3444 30.4892 16.8375C30.6771 16.8375 30.8337 16.8375 30.9824 16.8375C33.6517 16.8375 36.3209 16.8375 38.9902 16.8375C39.8043 16.8375 40.0078 17.0332 40.0078 17.8473C40.0078 23.6399 40.0078 29.4324 40.0078 35.225C40.0078 36.0391 39.8043 36.2348 38.9902 36.2348C26.3249 36.2348 13.6595 36.2348 0.986301 36.2426C0.555773 36.2426 0.219178 36.1487 0 35.7651C0 29.6281 0 23.4833 0 17.3385ZM29.1194 34.8414C29.1272 34.7319 29.1429 34.6458 29.1429 34.5597C29.135 28.3366 29.1272 22.1213 29.135 15.8982C29.135 15.6242 29.0411 15.4833 28.8063 15.3581C25.9804 13.7847 23.1546 12.1957 20.3366 10.5988C20.0861 10.4579 19.9061 10.4657 19.6634 10.6066C16.8611 12.1957 14.0509 13.7769 11.2329 15.3503C10.9667 15.499 10.8571 15.6555 10.8571 15.9765C10.865 22.1213 10.865 28.2583 10.865 34.4031C10.865 34.544 10.865 34.6849 10.865 34.8414C12.0313 34.8414 13.1507 34.8414 14.3092 34.8414C14.3092 34.6614 14.3092 34.5049 14.3092 34.3561C14.3092 31.7808 14.3092 29.2054 14.3092 26.6223C14.3092 25.8317 14.5205 25.6203 15.2955 25.6203C18.4344 25.6203 21.5734 25.6203 24.7045 25.6203C25.4873 25.6203 25.6908 25.8317 25.6908 26.6223C25.6908 29.2133 25.6908 31.8043 25.6908 34.3953C25.6908 34.544 25.6908 34.6927 25.6908 34.8493C26.8728 34.8414 27.9843 34.8414 29.1194 34.8414ZM1.409 18.2309C1.409 23.773 1.409 29.2915 1.409 34.8336C4.10959 34.8336 6.79452 34.8336 9.48728 34.8336C9.48728 29.2837 9.48728 23.7651 9.48728 18.2309C6.77886 18.2309 4.10959 18.2309 1.409 18.2309ZM38.591 34.8414C38.591 29.2994 38.591 23.773 38.591 18.2387C35.8826 18.2387 33.1977 18.2387 30.5127 18.2387C30.5127 23.7886 30.5127 29.3072 30.5127 34.8414C33.2211 34.8414 35.8982 34.8414 38.591 34.8414ZM19.2798 34.8414C19.2798 32.2191 19.2798 29.6281 19.2798 27.0215C18.0822 27.0215 16.908 27.0215 15.7182 27.0215C15.7182 29.636 15.7182 32.227 15.7182 34.8414C16.908 34.8414 18.0744 34.8414 19.2798 34.8414ZM20.7202 27.0215C20.7202 29.6281 20.7202 32.227 20.7202 34.8414C21.9178 34.8414 23.092 34.8414 24.2896 34.8414C24.2896 32.227 24.2896 29.636 24.2896 27.0215C23.092 27.0215 21.9178 27.0215 20.7202 27.0215ZM20.7123 5.11151C22.137 5.11151 23.5303 5.11151 24.908 5.11151C24.908 4.36004 24.908 3.63989 24.908 2.89625C24.1879 2.89625 23.5068 2.89625 22.818 2.89625C22.1213 2.89625 21.4247 2.89625 20.7123 2.89625C20.7123 3.66337 20.7123 4.36787 20.7123 5.11151ZM26.3483 4.63402C26.3327 4.68881 26.3092 4.72795 26.3092 4.75926C26.3014 5.05672 26.3014 5.35417 26.3014 5.65163C26.3092 6.25437 26.0822 6.49703 25.4716 6.51268C25.0568 6.52051 24.6419 6.50486 24.227 6.52051C24.1331 6.52834 24.0391 6.62227 23.9452 6.6849C24.0391 6.73969 24.1331 6.84928 24.227 6.84928C24.9941 6.86494 25.7613 6.85711 26.5284 6.85711C26.9746 6.85711 27.4207 6.85711 27.8826 6.85711C27.7652 6.45006 27.593 6.09781 27.5851 5.73773C27.5773 5.37766 27.7417 5.01758 27.8356 4.63402C27.319 4.63402 26.8337 4.63402 26.3483 4.63402Z" fill="white"/>
<path d="M20.0157 18.2935C18.4266 18.3014 17.1272 17.0176 17.1115 15.4364C17.0959 13.8708 18.3953 12.5558 19.9843 12.5323C21.5421 12.5088 22.8728 13.8239 22.8885 15.3973C22.9041 16.9785 21.6047 18.2779 20.0157 18.2935ZM18.5049 15.4207C18.5049 16.2427 19.1624 16.9159 19.9843 16.9315C20.7984 16.9472 21.4951 16.274 21.4951 15.4599C21.5029 14.5988 20.8141 13.8943 19.9765 13.91C19.1624 13.9178 18.5049 14.591 18.5049 15.4207Z" fill="white"/>
<path d="M18.638 21.0724C18.638 20.6262 18.638 20.2035 18.638 19.7573C19.5538 19.7573 20.4462 19.7573 21.362 19.7573C21.362 20.1957 21.362 20.6184 21.362 21.0724C20.4618 21.0724 19.5695 21.0724 18.638 21.0724Z" fill="white"/>
<path d="M18.6458 22.9745C19.546 22.9745 20.4384 22.9745 21.3542 22.9745C21.3542 23.4128 21.3542 23.8355 21.3542 24.2896C20.454 24.2896 19.5695 24.2896 18.6458 24.2896C18.6458 23.859 18.6458 23.4285 18.6458 22.9745Z" fill="white"/>
<path d="M15.6869 21.0802C14.7789 21.0802 13.8943 21.0802 12.9863 21.0802C12.9863 20.634 12.9863 20.2113 12.9863 19.7651C13.8865 19.7651 14.771 19.7651 15.6869 19.7651C15.6869 20.1957 15.6869 20.634 15.6869 21.0802Z" fill="white"/>
<path d="M27.0215 19.7651C27.0215 20.2191 27.0215 20.634 27.0215 21.0724C26.1213 21.0724 25.2368 21.0724 24.3131 21.0724C24.3131 20.6497 24.3131 20.2191 24.3131 19.7651C25.2133 19.7651 26.0978 19.7651 27.0215 19.7651Z" fill="white"/>
<path d="M12.9941 22.9667C13.9022 22.9667 14.7867 22.9667 15.6869 22.9667C15.6869 23.405 15.6869 23.8277 15.6869 24.2817C14.8024 24.2817 13.91 24.2817 12.9941 24.2817C12.9941 23.8669 12.9941 23.4285 12.9941 22.9667Z" fill="white"/>
<path d="M24.3053 24.2896C24.3053 23.8355 24.3053 23.4128 24.3053 22.9745C25.2133 22.9745 26.1057 22.9745 27.0137 22.9745C27.0137 23.4128 27.0137 23.8355 27.0137 24.2896C26.1213 24.2896 25.229 24.2896 24.3053 24.2896Z" fill="white"/>
<path d="M3.07632 19.7573C3.51468 19.7573 3.93738 19.7573 4.39922 19.7573C4.39922 20.6575 4.39922 21.5421 4.39922 22.4579C3.96869 22.4579 3.53816 22.4579 3.07632 22.4579C3.07632 21.5812 3.07632 20.6967 3.07632 19.7573Z" fill="white"/>
<path d="M7.79648 22.4736C7.34247 22.4736 6.91194 22.4736 6.46576 22.4736C6.46576 21.5734 6.46576 20.681 6.46576 19.7651C6.91194 19.7651 7.34247 19.7651 7.79648 19.7651C7.79648 20.6653 7.79648 21.5499 7.79648 22.4736Z" fill="white"/>
<path d="M4.39922 27.8825C3.94521 27.8825 3.51468 27.8825 3.06067 27.8825C3.06067 26.9745 3.06067 26.0899 3.06067 25.1741C3.50685 25.1741 3.93738 25.1741 4.39922 25.1741C4.39922 26.0821 4.39922 26.9666 4.39922 27.8825Z" fill="white"/>
<path d="M3.0685 30.6145C3.52251 30.6145 3.94521 30.6145 4.39922 30.6145C4.39922 31.5225 4.39922 32.4071 4.39922 33.3229C3.96086 33.3229 3.52251 33.3229 3.0685 33.3229C3.0685 32.4305 3.0685 31.546 3.0685 30.6145Z" fill="white"/>
<path d="M6.46576 30.6145C6.93543 30.6145 7.3503 30.6145 7.78866 30.6145C7.78866 31.5147 7.78866 32.4071 7.78866 33.3229C7.36596 33.3229 6.9276 33.3229 6.46576 33.3229C6.46576 32.4305 6.46576 31.5304 6.46576 30.6145Z" fill="white"/>
<path d="M6.45793 25.1741C6.9276 25.1741 7.3503 25.1741 7.79648 25.1741C7.79648 26.0821 7.79648 26.9745 7.79648 27.8825C7.3503 27.8825 6.91977 27.8825 6.45793 27.8825C6.45793 26.9823 6.45793 26.0899 6.45793 25.1741Z" fill="white"/>
<path d="M33.5421 22.4736C33.0802 22.4736 32.6575 22.4736 32.2113 22.4736C32.2113 21.5655 32.2113 20.681 32.2113 19.7651C32.6497 19.7651 33.0881 19.7651 33.5421 19.7651C33.5421 20.6653 33.5421 21.5499 33.5421 22.4736Z" fill="white"/>
<path d="M36.9237 22.4736C36.4697 22.4736 36.047 22.4736 35.593 22.4736C35.593 21.5655 35.593 20.6732 35.593 19.7651C36.0391 19.7651 36.4618 19.7651 36.9237 19.7651C36.9237 20.6497 36.9237 21.5499 36.9237 22.4736Z" fill="white"/>
<path d="M36.9393 25.1741C36.9393 26.0899 36.9393 26.9823 36.9393 27.8903C36.4853 27.8903 36.0548 27.8903 35.6008 27.8903C35.6008 26.9745 35.6008 26.0899 35.6008 25.1741C36.047 25.1741 36.4697 25.1741 36.9393 25.1741Z" fill="white"/>
<path d="M32.2035 33.3151C32.2035 32.407 32.2035 31.5225 32.2035 30.6223C32.6497 30.6223 33.0881 30.6223 33.5421 30.6223C33.5421 31.5303 33.5421 32.4149 33.5421 33.3151C33.0802 33.3151 32.6419 33.3151 32.2035 33.3151Z" fill="white"/>
<path d="M36.9315 33.3307C36.4932 33.3307 36.0626 33.3307 35.6086 33.3307C35.6086 32.4305 35.6086 31.5304 35.6086 30.6145C36.0548 30.6145 36.4775 30.6145 36.9315 30.6145C36.9315 31.5069 36.9315 32.3992 36.9315 33.3307Z" fill="white"/>
<path d="M32.2035 25.1741C32.6732 25.1741 33.0959 25.1741 33.5421 25.1741C33.5421 26.0821 33.5421 26.9745 33.5421 27.8903C33.0881 27.8903 32.6575 27.8903 32.2035 27.8903C32.2035 26.9745 32.2035 26.0899 32.2035 25.1741Z" fill="white"/>
</g>
<defs>
<clipPath id="clip0_3_1036">
<rect width="40" height="36.2505" fill="white"/>
</clipPath>
</defs>
</svg>
