<svg width="24" height="24" viewBox="0 0 24 24" fill="none" xmlns="http://www.w3.org/2000/svg">
<path d="M4.05029 19L4.05029 5.7H5.55029L5.55029 19H4.05029ZM19.0503 5.7V19H17.5503V5.7H19.0503ZM16.3003 21.75H6.80029V20.25H16.3003V21.75ZM19.0503 19C19.0503 20.5188 17.8191 21.75 16.3003 21.75V20.25C16.9906 20.25 17.5503 19.6904 17.5503 19H19.0503ZM5.55029 19C5.55029 19.6904 6.10994 20.25 6.80029 20.25V21.75C5.28151 21.75 4.05029 20.5188 4.05029 19H5.55029Z" fill="white"/>
<path d="M9.75 11.1001V15.6001" stroke="white" stroke-width="1.5" stroke-linecap="round"/>
<path d="M13.3501 11.1001V15.6001" stroke="white" stroke-width="1.5" stroke-linecap="round"/>
<path d="M3 5.70007H20.1" stroke="white" stroke-width="1.5" stroke-linecap="round"/>
<path d="M7.05029 5.7L7.22176 4.6712C7.38249 3.70683 8.21687 3 9.19455 3H11.5503H13.906C14.8837 3 15.7181 3.70683 15.8788 4.6712L16.0503 5.7" stroke="white" stroke-width="1.5" stroke-linecap="round"/>
</svg>
