<svg width="20" height="20" viewBox="0 0 20 20" fill="none" xmlns="http://www.w3.org/2000/svg">
<path d="M18.3335 4.16663C18.3335 2.78591 17.2142 1.66663 15.8335 1.66663C14.4528 1.66663 13.3335 2.78591 13.3335 4.16663C13.3335 5.54734 14.4528 6.66663 15.8335 6.66663C17.2142 6.66663 18.3335 5.54734 18.3335 4.16663Z" stroke="#8F9090" stroke-width="1.5"/>
<path d="M6.66675 10C6.66675 8.61929 5.54746 7.5 4.16675 7.5C2.78604 7.5 1.66675 8.61929 1.66675 10C1.66675 11.3807 2.78604 12.5 4.16675 12.5C5.54746 12.5 6.66675 11.3807 6.66675 10Z" stroke="#8F9090" stroke-width="1.5"/>
<path d="M18.3335 15.8333C18.3335 14.4525 17.2142 13.3333 15.8335 13.3333C14.4528 13.3333 13.3335 14.4525 13.3335 15.8333C13.3335 17.214 14.4528 18.3333 15.8335 18.3333C17.2142 18.3333 18.3335 17.214 18.3335 15.8333Z" stroke="#8F9090" stroke-width="1.5"/>
<path d="M13.3333 4.58325L6.25 8.33325" stroke="#8F9090" stroke-width="1.5" stroke-linecap="round"/>
<path d="M13.3333 15.4166L6.25 11.6666" stroke="#8F9090" stroke-width="1.5" stroke-linecap="round"/>
</svg>
