<svg width="30" height="40" viewBox="0 0 30 40" fill="none" xmlns="http://www.w3.org/2000/svg">
<g clip-path="url(#clip0_122_111)">
<path d="M8.92713 0C9.09987 0.0391313 9.2726 0.0860888 9.44533 0.12522C11.7851 0.680884 13.3868 2.08961 14.0384 4.39053C14.7058 6.72275 14.0856 8.78106 12.3425 10.4872C12.3033 10.5263 12.2719 10.5576 12.2326 10.5968C12.2248 10.6046 12.2248 10.6202 12.2169 10.6281C13.5045 11.035 14.8 11.4342 16.1426 11.8568C16.4253 11.2698 16.7315 10.6359 17.0534 9.97848C16.9828 9.91587 16.8964 9.84543 16.81 9.76717C15.7815 8.8828 15.4439 7.56016 15.8914 6.22187C16.284 5.07141 17.4303 4.18705 18.7101 4.14792C20.0134 4.10878 21.3168 4.14009 22.6201 4.11661C22.8635 4.10878 23.1383 4.04617 23.3503 3.92095C24.4652 3.29485 25.5644 2.64527 26.6715 2.01135C27.5351 1.51829 28.1947 1.90178 28.2025 2.90354C28.2025 3.20094 28.2104 3.50616 28.2025 3.80356C28.1868 4.5001 28.2339 5.1262 28.6736 5.77578C29.4352 6.91058 29.2389 8.27235 28.391 9.37586C28.281 9.51673 28.2182 9.72021 28.2182 9.90021C28.1947 10.5341 28.2182 11.1759 28.2104 11.8098C28.2025 12.749 27.5273 13.1325 26.7029 12.6629C25.5723 12.0133 24.4495 11.3481 23.3189 10.7141C23.1069 10.5968 22.8478 10.5654 22.5023 10.4637C23.0598 11.7003 22.8321 12.749 22.3218 13.8055C21.7486 14.9873 21.2304 16.1925 20.6808 17.3899C19.8485 19.2135 18.1369 19.8474 16.2997 19.0256C15.6637 18.7361 15.0199 18.4465 14.3054 18.1256C14.3054 18.3447 14.3054 18.5091 14.3054 18.6656C14.3054 24.8718 14.3054 31.0781 14.3054 37.2921C14.3054 38.3643 13.9678 39.2487 12.9549 39.7261C12.5781 39.9061 12.1305 39.9843 11.7066 39.9843C9.39822 40.0078 7.08989 40 4.78155 39.9922C3.15629 39.9922 2.16701 39.0217 2.15916 37.4017C2.15131 34.5138 2.15131 31.6259 2.16701 28.7302C2.16701 28.331 2.11205 28.0963 1.68807 27.9084C0.879366 27.5484 0.361168 26.8754 0.117772 26.0145C0.0863663 25.9049 0.0392574 25.8032 0 25.6936C0 23.0405 0 20.3796 0 17.7265C0.0235544 17.656 0.0549604 17.5856 0.0706633 17.5073C0.353317 15.3003 1.36616 13.5003 3.10133 12.1072C3.61168 11.7003 4.18484 11.3716 4.74229 11.0037C4.67948 10.9489 4.61667 10.8863 4.54601 10.8315C0.895069 7.99061 1.55459 2.44179 5.77084 0.540012C6.344 0.281745 6.98782 0.172178 7.59238 0C8.03992 0 8.4796 0 8.92713 0ZM12.476 27.5954C12.476 24.3944 12.476 21.1935 12.476 17.9847C12.476 17.6873 12.4839 17.3821 12.5467 17.0925C12.7508 16.1143 13.2454 15.5899 14.3211 16.1221C15.2554 16.5838 16.2133 16.9986 17.1633 17.4134C17.9563 17.7656 18.6159 17.5152 18.977 16.7404C19.613 15.3708 20.2333 14.0012 20.8457 12.6159C20.9556 12.3655 21.0184 12.0603 21.0106 11.7863C20.987 11.1681 20.5159 10.6907 19.8799 10.5654C19.3146 10.4559 18.7022 10.7455 18.4196 11.3089C18.082 11.9977 17.7758 12.702 17.4538 13.3986C17.2733 13.7899 16.9828 14.0403 16.5431 14.009C16.3154 13.9933 16.0877 13.8916 15.8757 13.7977C13.3475 12.6394 10.6937 12.0368 7.91429 12.1229C4.7894 12.2246 2.1042 14.6821 1.90006 17.7891C1.73518 20.2622 1.82154 22.7588 1.82939 25.2397C1.82939 25.8893 2.26908 26.3119 2.92075 26.4293C3.79226 26.5858 3.98855 26.8206 3.98855 27.7049C3.98855 30.9294 3.98855 34.1616 3.98855 37.386C3.98855 37.9887 4.17699 38.1765 4.7894 38.1765C5.33901 38.1765 5.88861 38.1765 6.43036 38.1765C7.1841 38.1765 7.31758 38.0356 7.31758 37.2921C7.31758 34.5842 7.31758 31.8763 7.31758 29.1685C7.31758 28.9885 7.31758 28.8006 7.34899 28.6206C7.45105 28.0884 7.99281 27.7754 8.50315 27.9476C8.93498 28.0884 9.13912 28.4484 9.13912 29.0824C9.13912 31.8685 9.13912 34.6547 9.13912 37.4408C9.13912 37.9886 9.31971 38.1687 9.86146 38.1765C10.4189 38.1843 10.9842 38.1765 11.5417 38.1765C12.3111 38.1765 12.4603 38.0278 12.4603 37.2686C12.476 34.052 12.476 30.8276 12.476 27.5954ZM12.476 6.07318C12.4839 3.74095 10.5759 1.81569 8.2362 1.80787C5.92002 1.80004 4.00425 3.70182 3.98855 6.01839C3.97285 8.35844 5.86506 10.2837 8.2048 10.2994C10.5288 10.3228 12.4603 8.4054 12.476 6.07318ZM22.361 5.9323C21.2383 5.9323 20.1469 5.9323 19.0555 5.9323C18.1369 5.9323 17.5088 6.50362 17.5009 7.31755C17.4931 8.13148 18.1291 8.72628 19.0398 8.72628C20.0448 8.7341 21.042 8.72628 22.047 8.72628C22.149 8.72628 22.2432 8.71062 22.361 8.69497C22.361 7.78713 22.361 6.89493 22.361 5.9323ZM26.381 4.28096C25.6743 4.69575 25.007 5.07141 24.3553 5.47055C24.2689 5.52534 24.2061 5.67404 24.2061 5.7836C24.1983 6.8245 24.1983 7.86539 24.2061 8.90628C24.2061 9.0002 24.2375 9.13324 24.3082 9.17237C24.9834 9.57934 25.6665 9.97065 26.3888 10.3854C26.381 8.32714 26.381 6.33927 26.381 4.28096Z" fill="#33363F"/>
</g>
<defs>
<clipPath id="clip0_122_111">
<rect width="29.1525" height="40" fill="white"/>
</clipPath>
</defs>
</svg>
