<svg width="36" height="50" viewBox="0 0 36 50" fill="none" xmlns="http://www.w3.org/2000/svg">
<g clip-path="url(#clip0_3_1028)">
<path d="M16.2598 0C16.875 0 17.5 0 18.1152 0C18.1738 0.0292969 18.2324 0.0683594 18.291 0.0683594C20.7031 0.341797 22.7148 1.40625 24.4141 3.11523C24.541 3.25195 24.7266 3.34961 24.9023 3.41797C26.9922 4.28711 28.1348 5.84961 28.1738 8.10547C28.2324 10.7715 28.2031 13.4375 28.1836 16.1133C28.1738 17.5684 27.334 18.6719 25.957 19.1699C25.791 19.2285 25.6055 19.4141 25.5566 19.5703C25.0195 21.6895 23.8281 23.3301 22.0117 24.5215C21.8848 24.5996 21.7871 24.7949 21.7773 24.9414C21.7676 25.0098 21.9922 25.1367 22.1289 25.166C23.4082 25.4102 24.6777 25.6738 25.9668 25.8594C27.8906 26.1328 29.5801 26.7871 30.7324 28.4668C30.791 28.5547 31.0449 28.5742 31.1816 28.5254C31.7871 28.3203 32.3926 28.0762 33.0566 27.8223C33.0566 29.5898 33.0566 31.2891 33.0566 32.9883C33.1934 33.0176 33.291 33.0469 33.3887 33.0566C34.6191 33.291 35.3906 34.1113 35.4395 35.3613C35.4785 36.543 35.4785 37.7344 35.4199 38.9258C35.3711 39.9609 34.5508 40.8203 33.5352 41.0156C33.3789 41.0449 33.2324 41.0742 33.0566 41.1035C33.0566 41.9434 33.0273 42.7441 33.0664 43.5352C33.0859 43.9355 32.9297 44.0918 32.5781 44.2285C29.375 45.459 26.1816 46.6992 22.998 47.9492C21.2793 48.623 19.5605 49.3066 17.8418 49.9902C17.7734 49.9902 17.7148 49.9902 17.6465 49.9902C17.5 49.9219 17.3633 49.8437 17.207 49.7852C12.4414 47.9297 7.67578 46.0742 2.90039 44.2285C2.54883 44.0918 2.39258 43.9355 2.41211 43.5352C2.45117 42.7246 2.42187 41.9141 2.42187 41.1133C2.29492 41.084 2.2168 41.0547 2.13867 41.0449C0.878906 40.8301 0.0976563 40 0.0390625 38.7402C-0.00976563 37.7344 0.00976562 36.7285 0.0195312 35.7129C0.0292969 34.1699 0.722656 33.3398 2.23633 33.0371C2.29492 33.0273 2.35352 32.998 2.43164 32.9688C2.43164 31.2695 2.43164 29.5801 2.43164 27.832C3.19336 28.125 3.89648 28.3887 4.60938 28.6621C4.69727 28.5449 4.76562 28.4668 4.83398 28.3691C5.73242 27.1289 6.93359 26.3574 8.4375 26.0742C10.0391 25.7715 11.6309 25.498 13.2324 25.1953C13.3984 25.166 13.5547 25.0391 13.7109 24.9609C13.6035 24.8047 13.5254 24.5898 13.3789 24.4922C11.6113 23.3105 10.459 21.6992 9.91211 19.6484C9.86328 19.4727 9.67773 19.2578 9.51172 19.1895C8.13477 18.6816 7.29492 17.5879 7.27539 16.1328C7.25586 14.0039 7.23633 11.8652 7.28516 9.73633C7.38281 5.54687 9.92188 2.01172 13.8672 0.595703C14.6289 0.322266 15.459 0.195312 16.2598 0ZM4.04297 30.1953C4.04297 31.1621 4.05273 32.0801 4.0332 32.9883C4.0332 33.2617 4.11133 33.418 4.36523 33.5547C6.83594 34.9414 7.1582 38.2715 5.01953 40.1172C3.93555 40.498 3.94531 41.377 4.0332 42.2852C4.0332 42.334 4.04297 42.3828 4.0332 42.4316C3.95508 42.8418 4.16016 43.0176 4.53125 43.1641C8.48633 44.6875 12.4414 46.2305 16.3867 47.7637C16.5527 47.8223 16.7188 47.8809 16.9238 47.9492C16.9238 47.7344 16.9238 47.5684 16.9238 47.4121C16.9238 43.5254 16.9141 39.6289 16.9336 35.7422C16.9336 35.3418 16.8164 35.1465 16.4355 35.0098C12.627 33.5449 8.82813 32.0605 5.0293 30.5859C4.72656 30.4492 4.41406 30.332 4.04297 30.1953ZM18.5254 47.9297C18.75 47.8516 18.9355 47.8027 19.1113 47.7344C22.6562 46.3574 26.1914 44.9805 29.7363 43.5937C30.293 43.3789 31.0547 43.2812 31.3281 42.8613C31.6113 42.4414 31.3965 41.6992 31.416 41.0937C31.4258 40.8301 31.3477 40.6934 31.1133 40.5566C29.7559 39.7852 29.0234 38.6035 29.0234 37.0508C29.0234 35.4785 29.7656 34.2969 31.1328 33.4961C31.25 33.4277 31.3965 33.2715 31.4062 33.1543C31.4258 32.1777 31.416 31.2109 31.416 30.1855C31.2109 30.2539 31.0645 30.3027 30.9082 30.3516C26.9238 31.8945 22.9492 33.457 18.9648 34.9902C18.6133 35.127 18.5156 35.3027 18.5254 35.6641C18.5352 39.5898 18.5352 43.5059 18.5352 47.4316C18.5254 47.5879 18.5254 47.7344 18.5254 47.9297ZM26.5723 13.2715C26.5723 11.4746 26.6211 9.72656 26.5527 7.96875C26.5039 6.54297 25.752 5.50781 24.4141 4.98047C23.916 4.78516 23.5156 4.51172 23.1348 4.14063C20.957 1.99219 18.3398 1.16211 15.3613 1.82617C11.6504 2.66602 9.17969 5.61523 8.90625 9.42383C8.81836 10.6934 8.89648 11.9727 8.89648 13.2422C9.69727 13.2324 9.73633 12.6855 9.6875 12.0508C12.9004 12.3633 15.0781 10.6738 16.9727 8.4082C17.1973 8.70117 17.3438 8.93555 17.5293 9.13086C17.9785 9.61914 18.4082 10.1367 18.916 10.5566C20.2246 11.6309 21.7676 12.0703 23.4473 12.0801C24.209 12.0801 24.9707 12.0801 25.7227 12.0801C25.8594 13.0371 25.8594 13.0371 26.5723 13.2715ZM11.2793 13.7012C11.2793 14.8535 11.2598 16.0254 11.2891 17.1973C11.3086 17.8711 11.3281 18.5742 11.4844 19.2285C12.2266 22.3145 14.9316 24.2969 18.1543 24.1406C21.1328 24.0039 23.6914 21.6797 24.0723 18.6328C24.2285 17.4023 24.1504 16.1328 24.1699 14.8828C24.1797 14.502 24.1699 14.1113 24.1699 13.6719C21.2793 13.8477 18.8477 12.9492 16.875 10.9082C14.541 12.8027 14.541 12.8027 11.2793 13.7012ZM6.18164 29.2773C8.7793 30.2832 11.3086 31.2695 13.8477 32.2559C13.8672 32.168 13.8867 32.1387 13.8867 32.1094C13.3594 30.5078 12.8125 28.9063 12.2949 27.3047C12.1973 27.0117 12.041 27.0313 11.8164 27.0703C10.8105 27.2559 9.80469 27.4316 8.79883 27.627C7.73438 27.8418 6.85547 28.3496 6.18164 29.2773ZM29.2676 29.2773C28.7305 28.5352 28.0859 28.0078 27.2559 27.8125C26.0254 27.5195 24.7754 27.2949 23.5352 27.0703C23.4277 27.0508 23.2227 27.1973 23.1738 27.3145C22.9688 27.8223 22.8027 28.3594 22.6367 28.877C22.2754 29.9805 21.9043 31.084 21.5137 32.2949C24.1406 31.2695 26.6797 30.293 29.2676 29.2773ZM20.7813 32.5879C19.7168 31.5234 18.6816 30.4883 17.6855 29.502C16.709 30.4785 15.6836 31.5137 14.6289 32.5684C15.6055 32.9492 16.6113 33.3398 17.627 33.7207C17.6953 33.75 17.793 33.7402 17.8613 33.7109C18.8477 33.3301 19.8438 32.9492 20.7813 32.5879ZM1.62109 37.0313C1.62109 37.5488 1.60156 38.0664 1.62109 38.584C1.64062 39.1699 1.98242 39.4629 2.56836 39.4434C3.79883 39.4043 4.84375 38.3105 4.84375 37.041C4.84375 35.7715 3.79883 34.6777 2.55859 34.6484C1.97266 34.6289 1.64062 34.9219 1.62109 35.5176C1.60156 36.0254 1.62109 36.5332 1.62109 37.0313ZM33.8379 37.0703C33.8379 36.6016 33.8379 36.1328 33.8379 35.6641C33.8379 35.6348 33.8379 35.5957 33.8379 35.5664C33.8086 34.9219 33.4863 34.6289 32.8418 34.668C31.6211 34.7266 30.6152 35.8105 30.625 37.0605C30.625 38.3105 31.6406 39.3945 32.8613 39.4531C33.4961 39.4824 33.8281 39.1797 33.8477 38.5352C33.8477 38.0469 33.8379 37.5586 33.8379 37.0703ZM16.4453 28.2422C15.8008 27.7637 15.166 27.2559 14.502 26.7969C14.3359 26.6797 14.082 26.709 13.7695 26.6504C14.1602 27.8125 14.502 28.8281 14.834 29.834C15.3711 29.2969 15.8887 28.7891 16.4453 28.2422ZM21.6406 26.7969C21.6016 26.7383 21.5625 26.6895 21.5234 26.6309C20.4687 26.8262 19.873 27.7734 19.0723 28.1934C19.6289 28.7402 20.1563 29.2578 20.6543 29.7559C20.9668 28.8184 21.2988 27.8027 21.6406 26.7969ZM15.5957 25.5859C16.25 26.084 16.9141 26.5723 17.5781 27.0605C17.6465 27.1094 17.8027 27.1191 17.8711 27.0703C18.5449 26.582 19.2188 26.0742 19.8828 25.5762C18.4375 25.8496 17.0312 25.8594 15.5957 25.5859ZM9.63867 17.4219C9.63867 16.5234 9.63867 15.6836 9.63867 14.8047C8.64258 15.4395 8.63281 16.7383 9.63867 17.4219ZM25.8203 14.8047C25.8203 15.6934 25.8203 16.5332 25.8203 17.3926C26.748 16.9727 26.8555 15.3711 25.8203 14.8047Z" fill="white"/>
</g>
<defs>
<clipPath id="clip0_3_1028">
<rect width="35.4492" height="50" fill="white"/>
</clipPath>
</defs>
</svg>
