<svg width="60" height="60" viewBox="0 0 60 60" fill="none" xmlns="http://www.w3.org/2000/svg">
<path d="M51.657 21.6247L51.2509 20.7109L51.657 21.6247ZM51.657 20.8753L51.2509 21.7891L51.657 20.8753ZM29.1877 30.889L28.7816 31.8028L29.1877 30.889ZM30.8123 30.889L31.2184 31.8028L30.8123 30.889ZM8.34299 20.8753L7.93685 19.9615L8.34299 20.8753ZM8.34299 21.6247L7.93685 22.5385L8.34299 21.6247ZM29.1877 11.611L28.7816 10.6972L29.1877 11.611ZM28.7816 10.6972L7.93685 19.9615L8.74913 21.7891L29.5939 12.5248L28.7816 10.6972ZM7.93685 22.5385L28.7816 31.8028L29.5939 29.9752L8.74913 20.7109L7.93685 22.5385ZM31.2184 31.8028L52.0631 22.5385L51.2509 20.7109L30.4061 29.9752L31.2184 31.8028ZM52.0631 19.9615L31.2184 10.6972L30.4061 12.5248L51.2509 21.7891L52.0631 19.9615ZM52.0631 22.5385C53.1796 22.0423 53.1796 20.4577 52.0631 19.9615L51.2509 21.7891C50.7837 21.5815 50.7837 20.9185 51.2509 20.7109L52.0631 22.5385ZM28.7816 31.8028C29.5573 32.1476 30.4427 32.1476 31.2184 31.8028L30.4061 29.9752C30.1476 30.0901 29.8524 30.0901 29.5939 29.9752L28.7816 31.8028ZM7.93685 19.9615C6.82039 20.4577 6.82039 22.0423 7.93685 22.5385L8.74913 20.7109C9.2163 20.9185 9.2163 21.5815 8.74913 21.7891L7.93685 19.9615ZM29.5939 12.5248C29.8524 12.4099 30.1476 12.4099 30.4061 12.5248L31.2184 10.6972C30.4427 10.3524 29.5573 10.3524 28.7816 10.6972L29.5939 12.5248Z" fill="#33363F"/>
<path d="M51.25 21.25V31.25" stroke="#33363F" stroke-width="2" stroke-linecap="round" stroke-linejoin="round"/>
<path d="M17.25 26.25C17.25 25.6977 16.8023 25.25 16.25 25.25C15.6977 25.25 15.25 25.6977 15.25 26.25H17.25ZM16.25 38.75H15.25C15.25 38.8318 15.26 38.9132 15.2799 38.9925L16.25 38.75ZM43.75 38.75L44.7201 38.9925C44.74 38.9132 44.75 38.8318 44.75 38.75H43.75ZM44.75 26.25C44.75 25.6977 44.3023 25.25 43.75 25.25C43.1977 25.25 42.75 25.6977 42.75 26.25H44.75ZM15.25 26.25V38.75H17.25V26.25H15.25ZM16.25 38.75C15.2799 38.9925 15.2801 38.9937 15.2804 38.9948C15.2805 38.9952 15.2808 38.9964 15.281 38.9972C15.2815 38.9989 15.2819 39.0006 15.2824 39.0024C15.2833 39.006 15.2843 39.0099 15.2855 39.0141C15.2878 39.0226 15.2905 39.0323 15.2936 39.0432C15.2999 39.0649 15.3081 39.0914 15.3184 39.1224C15.339 39.1843 15.3684 39.264 15.409 39.3588C15.4903 39.5485 15.6166 39.798 15.8086 40.0859C16.1943 40.6646 16.8354 41.3838 17.8828 42.0821C19.9743 43.4764 23.6264 44.75 30 44.75V42.75C23.8736 42.75 20.6507 41.5236 18.9922 40.4179C18.1646 39.8662 17.7119 39.3354 17.4727 38.9766C17.3521 38.7957 17.2831 38.6546 17.2473 38.5709C17.2293 38.529 17.2195 38.5012 17.2158 38.4899C17.2139 38.4843 17.2135 38.4827 17.2143 38.4855C17.2147 38.4869 17.2154 38.4895 17.2164 38.4931C17.2169 38.4949 17.2175 38.497 17.2181 38.4994C17.2184 38.5006 17.2187 38.5019 17.2191 38.5032C17.2192 38.5039 17.2195 38.505 17.2196 38.5053C17.2199 38.5064 17.2201 38.5075 16.25 38.75ZM30 44.75C36.3736 44.75 40.0257 43.4764 42.1172 42.0821C43.1646 41.3838 43.8057 40.6646 44.1914 40.0859C44.3834 39.798 44.5097 39.5485 44.591 39.3588C44.6316 39.264 44.661 39.1843 44.6816 39.1224C44.6919 39.0914 44.7001 39.0649 44.7064 39.0432C44.7095 39.0323 44.7122 39.0226 44.7145 39.0141C44.7157 39.0099 44.7167 39.006 44.7176 39.0024C44.7181 39.0006 44.7185 38.9989 44.719 38.9972C44.7192 38.9964 44.7195 38.9952 44.7196 38.9948C44.7199 38.9937 44.7201 38.9925 43.75 38.75C42.7799 38.5075 42.7801 38.5064 42.7804 38.5053C42.7805 38.505 42.7808 38.5039 42.7809 38.5032C42.7813 38.5019 42.7816 38.5006 42.7819 38.4994C42.7825 38.497 42.7831 38.4949 42.7836 38.4931C42.7846 38.4895 42.7853 38.4869 42.7857 38.4855C42.7865 38.4827 42.7861 38.4843 42.7842 38.4899C42.7805 38.5012 42.7707 38.529 42.7527 38.5709C42.7169 38.6546 42.6479 38.7957 42.5273 38.9766C42.2881 39.3354 41.8354 39.8662 41.0078 40.4179C39.3493 41.5236 36.1264 42.75 30 42.75V44.75ZM44.75 38.75V26.25H42.75V38.75H44.75Z" fill="#33363F"/>
</svg>
