<svg width="115" height="96" viewBox="0 0 115 96" fill="none" xmlns="http://www.w3.org/2000/svg">
<ellipse cx="3.13675" cy="29.4849" rx="2.5" ry="2.62469" transform="rotate(-16.318 3.13675 29.4849)" fill="#02B0BB"/>
<ellipse cx="15.4388" cy="71.5055" rx="2.5" ry="2.62469" transform="rotate(-16.318 15.4388 71.5055)" fill="#02B0BB"/>
<ellipse cx="39.0206" cy="18.9794" rx="2.5" ry="2.62469" transform="rotate(-16.318 39.0206 18.9794)" fill="#02B0BB"/>
<ellipse cx="51.3226" cy="61.0001" rx="2.5" ry="2.62469" transform="rotate(-16.318 51.3226 61.0001)" fill="#02B0BB"/>
<ellipse cx="74.9044" cy="8.47407" rx="2.5" ry="2.62469" transform="rotate(-16.318 74.9044 8.47407)" fill="#02B0BB"/>
<ellipse cx="87.2065" cy="50.4947" rx="2.5" ry="2.62469" transform="rotate(-16.318 87.2065 50.4947)" fill="#02B0BB"/>
<ellipse cx="9.28772" cy="50.4951" rx="2.5" ry="2.62469" transform="rotate(-16.318 9.28772 50.4951)" fill="#02B0BB"/>
<ellipse cx="21.5897" cy="92.5155" rx="2.5" ry="2.62469" transform="rotate(-16.318 21.5897 92.5155)" fill="#02B0BB"/>
<ellipse cx="45.1716" cy="39.9897" rx="2.5" ry="2.62469" transform="rotate(-16.318 45.1716 39.9897)" fill="#02B0BB"/>
<ellipse cx="57.4735" cy="82.0101" rx="2.5" ry="2.62469" transform="rotate(-16.318 57.4735 82.0101)" fill="#02B0BB"/>
<ellipse cx="81.0554" cy="29.4843" rx="2.5" ry="2.62469" transform="rotate(-16.318 81.0554 29.4843)" fill="#02B0BB"/>
<ellipse cx="93.3574" cy="71.5047" rx="2.5" ry="2.62469" transform="rotate(-16.318 93.3574 71.5047)" fill="#02B0BB"/>
<ellipse cx="21.0787" cy="24.2322" rx="2.5" ry="2.62469" transform="rotate(-16.318 21.0787 24.2322)" fill="#02B0BB"/>
<ellipse cx="33.3807" cy="66.2528" rx="2.5" ry="2.62469" transform="rotate(-16.318 33.3807 66.2528)" fill="#02B0BB"/>
<ellipse cx="56.9625" cy="13.7268" rx="2.5" ry="2.62469" transform="rotate(-16.318 56.9625 13.7268)" fill="#02B0BB"/>
<ellipse cx="69.2646" cy="55.7474" rx="2.5" ry="2.62469" transform="rotate(-16.318 69.2646 55.7474)" fill="#02B0BB"/>
<ellipse cx="92.8464" cy="3.22133" rx="2.5" ry="2.62469" transform="rotate(-16.318 92.8464 3.22133)" fill="#02B0BB"/>
<ellipse cx="105.148" cy="45.242" rx="2.5" ry="2.62469" transform="rotate(-16.318 105.148 45.242)" fill="#02B0BB"/>
<ellipse cx="27.2296" cy="45.2424" rx="2.5" ry="2.62469" transform="rotate(-16.318 27.2296 45.2424)" fill="#02B0BB"/>
<ellipse cx="39.5316" cy="87.2628" rx="2.5" ry="2.62469" transform="rotate(-16.318 39.5316 87.2628)" fill="#02B0BB"/>
<ellipse cx="63.1135" cy="34.7369" rx="2.5" ry="2.62469" transform="rotate(-16.318 63.1135 34.7369)" fill="#02B0BB"/>
<ellipse cx="75.4155" cy="76.7574" rx="2.5" ry="2.62469" transform="rotate(-16.318 75.4155 76.7574)" fill="#02B0BB"/>
<ellipse cx="98.9973" cy="24.2316" rx="2.5" ry="2.62469" transform="rotate(-16.318 98.9973 24.2316)" fill="#02B0BB"/>
<ellipse cx="111.299" cy="66.252" rx="2.5" ry="2.62469" transform="rotate(-16.318 111.299 66.252)" fill="#02B0BB"/>
</svg>
