<svg width="114" height="94" viewBox="0 0 114 94" fill="none" xmlns="http://www.w3.org/2000/svg">
<ellipse cx="19.5037" cy="3.16656" rx="2.5" ry="2.62469" transform="rotate(14.4844 19.5037 3.16656)" fill="#02B0BB"/>
<ellipse cx="8.55251" cy="45.5593" rx="2.5" ry="2.62469" transform="rotate(14.4844 8.55251 45.5593)" fill="#02B0BB"/>
<ellipse cx="55.7053" cy="12.5184" rx="2.5" ry="2.62469" transform="rotate(14.4844 55.7053 12.5184)" fill="#02B0BB"/>
<ellipse cx="44.7541" cy="54.9112" rx="2.5" ry="2.62469" transform="rotate(14.4844 44.7541 54.9112)" fill="#02B0BB"/>
<ellipse cx="91.907" cy="21.8703" rx="2.5" ry="2.62469" transform="rotate(14.4844 91.907 21.8703)" fill="#02B0BB"/>
<ellipse cx="80.9557" cy="64.2631" rx="2.5" ry="2.62469" transform="rotate(14.4844 80.9557 64.2631)" fill="#02B0BB"/>
<ellipse cx="14.0282" cy="24.3628" rx="2.5" ry="2.62469" transform="rotate(14.4844 14.0282 24.3628)" fill="#02B0BB"/>
<ellipse cx="3.07705" cy="66.7553" rx="2.5" ry="2.62469" transform="rotate(14.4844 3.07705 66.7553)" fill="#02B0BB"/>
<ellipse cx="50.2298" cy="33.7147" rx="2.5" ry="2.62469" transform="rotate(14.4844 50.2298 33.7147)" fill="#02B0BB"/>
<ellipse cx="39.2786" cy="76.1072" rx="2.5" ry="2.62469" transform="rotate(14.4844 39.2786 76.1072)" fill="#02B0BB"/>
<ellipse cx="86.4314" cy="43.0666" rx="2.5" ry="2.62469" transform="rotate(14.4844 86.4314 43.0666)" fill="#02B0BB"/>
<ellipse cx="75.4802" cy="85.4591" rx="2.5" ry="2.62469" transform="rotate(14.4844 75.4802 85.4591)" fill="#02B0BB"/>
<ellipse cx="37.6046" cy="7.84249" rx="2.5" ry="2.62469" transform="rotate(14.4844 37.6046 7.84249)" fill="#02B0BB"/>
<ellipse cx="26.6533" cy="50.2353" rx="2.5" ry="2.62469" transform="rotate(14.4844 26.6533 50.2353)" fill="#02B0BB"/>
<ellipse cx="73.8061" cy="17.1944" rx="2.5" ry="2.62469" transform="rotate(14.4844 73.8061 17.1944)" fill="#02B0BB"/>
<ellipse cx="62.8549" cy="59.5871" rx="2.5" ry="2.62469" transform="rotate(14.4844 62.8549 59.5871)" fill="#02B0BB"/>
<ellipse cx="110.008" cy="26.5462" rx="2.5" ry="2.62469" transform="rotate(14.4844 110.008 26.5462)" fill="#02B0BB"/>
<ellipse cx="99.0565" cy="68.939" rx="2.5" ry="2.62469" transform="rotate(14.4844 99.0565 68.939)" fill="#02B0BB"/>
<ellipse cx="32.129" cy="29.0388" rx="2.5" ry="2.62469" transform="rotate(14.4844 32.129 29.0388)" fill="#02B0BB"/>
<ellipse cx="21.1778" cy="71.4313" rx="2.5" ry="2.62469" transform="rotate(14.4844 21.1778 71.4313)" fill="#02B0BB"/>
<ellipse cx="68.3306" cy="38.3906" rx="2.5" ry="2.62469" transform="rotate(14.4844 68.3306 38.3906)" fill="#02B0BB"/>
<ellipse cx="57.3794" cy="80.7831" rx="2.5" ry="2.62469" transform="rotate(14.4844 57.3794 80.7831)" fill="#02B0BB"/>
<ellipse cx="104.532" cy="47.7425" rx="2.5" ry="2.62469" transform="rotate(14.4844 104.532 47.7425)" fill="#02B0BB"/>
<ellipse cx="93.581" cy="90.135" rx="2.5" ry="2.62469" transform="rotate(14.4844 93.581 90.135)" fill="#02B0BB"/>
</svg>
