<svg width="122" height="115" viewBox="0 0 122 115" fill="none" xmlns="http://www.w3.org/2000/svg">
<ellipse cx="3.5536" cy="57.2271" rx="2.5" ry="2.62469" transform="rotate(-35.0209 3.5536 57.2271)" fill="#FFDD35"/>
<ellipse cx="28.6804" cy="93.084" rx="2.5" ry="2.62469" transform="rotate(-35.0209 28.6804 93.084)" fill="#FFDD35"/>
<ellipse cx="34.1739" cy="35.7699" rx="2.5" ry="2.62469" transform="rotate(-35.0209 34.1739 35.7699)" fill="#FFDD35"/>
<ellipse cx="59.3007" cy="71.6269" rx="2.5" ry="2.62469" transform="rotate(-35.0209 59.3007 71.6269)" fill="#FFDD35"/>
<ellipse cx="64.7942" cy="14.3127" rx="2.5" ry="2.62469" transform="rotate(-35.0209 64.7942 14.3127)" fill="#FFDD35"/>
<ellipse cx="89.921" cy="50.1697" rx="2.5" ry="2.62469" transform="rotate(-35.0209 89.921 50.1697)" fill="#FFDD35"/>
<ellipse cx="16.1169" cy="75.1555" rx="2.5" ry="2.62469" transform="rotate(-35.0209 16.1169 75.1555)" fill="#FFDD35"/>
<ellipse cx="41.2435" cy="111.012" rx="2.5" ry="2.62469" transform="rotate(-35.0209 41.2435 111.012)" fill="#FFDD35"/>
<ellipse cx="46.7372" cy="53.6983" rx="2.5" ry="2.62469" transform="rotate(-35.0209 46.7372 53.6983)" fill="#FFDD35"/>
<ellipse cx="71.8638" cy="89.555" rx="2.5" ry="2.62469" transform="rotate(-35.0209 71.8638 89.555)" fill="#FFDD35"/>
<ellipse cx="77.3575" cy="32.2411" rx="2.5" ry="2.62469" transform="rotate(-35.0209 77.3575 32.2411)" fill="#FFDD35"/>
<ellipse cx="102.484" cy="68.0978" rx="2.5" ry="2.62469" transform="rotate(-35.0209 102.484 68.0978)" fill="#FFDD35"/>
<ellipse cx="18.8638" cy="46.4985" rx="2.5" ry="2.62469" transform="rotate(-35.0209 18.8638 46.4985)" fill="#FFDD35"/>
<ellipse cx="43.9906" cy="82.3555" rx="2.5" ry="2.62469" transform="rotate(-35.0209 43.9906 82.3555)" fill="#FFDD35"/>
<ellipse cx="49.484" cy="25.0413" rx="2.5" ry="2.62469" transform="rotate(-35.0209 49.484 25.0413)" fill="#FFDD35"/>
<ellipse cx="74.6109" cy="60.8983" rx="2.5" ry="2.62469" transform="rotate(-35.0209 74.6109 60.8983)" fill="#FFDD35"/>
<ellipse cx="80.1043" cy="3.58414" rx="2.5" ry="2.62469" transform="rotate(-35.0209 80.1043 3.58414)" fill="#FFDD35"/>
<ellipse cx="105.231" cy="39.4411" rx="2.5" ry="2.62469" transform="rotate(-35.0209 105.231 39.4411)" fill="#FFDD35"/>
<ellipse cx="31.4271" cy="64.4269" rx="2.5" ry="2.62469" transform="rotate(-35.0209 31.4271 64.4269)" fill="#FFDD35"/>
<ellipse cx="56.5537" cy="100.284" rx="2.5" ry="2.62469" transform="rotate(-35.0209 56.5537 100.284)" fill="#FFDD35"/>
<ellipse cx="62.0474" cy="42.9697" rx="2.5" ry="2.62469" transform="rotate(-35.0209 62.0474 42.9697)" fill="#FFDD35"/>
<ellipse cx="87.174" cy="78.8264" rx="2.5" ry="2.62469" transform="rotate(-35.0209 87.174 78.8264)" fill="#FFDD35"/>
<ellipse cx="92.6677" cy="21.5125" rx="2.5" ry="2.62469" transform="rotate(-35.0209 92.6677 21.5125)" fill="#FFDD35"/>
<ellipse cx="117.794" cy="57.3693" rx="2.5" ry="2.62469" transform="rotate(-35.0209 117.794 57.3693)" fill="#FFDD35"/>
</svg>
