<svg width="117" height="100" viewBox="0 0 117 100" fill="none" xmlns="http://www.w3.org/2000/svg">
<ellipse cx="24.7914" cy="3.30012" rx="2.5" ry="2.62469" transform="rotate(19.1717 24.7914 3.30012)" fill="#FFDD35"/>
<ellipse cx="10.4125" cy="44.6562" rx="2.5" ry="2.62469" transform="rotate(19.1717 10.4125 44.6562)" fill="#FFDD35"/>
<ellipse cx="60.1077" cy="15.579" rx="2.5" ry="2.62469" transform="rotate(19.1717 60.1077 15.579)" fill="#FFDD35"/>
<ellipse cx="45.7289" cy="56.9351" rx="2.5" ry="2.62469" transform="rotate(19.1717 45.7289 56.9351)" fill="#FFDD35"/>
<ellipse cx="95.424" cy="27.8579" rx="2.5" ry="2.62469" transform="rotate(19.1717 95.424 27.8579)" fill="#FFDD35"/>
<ellipse cx="81.0452" cy="69.214" rx="2.5" ry="2.62469" transform="rotate(19.1717 81.0452 69.214)" fill="#FFDD35"/>
<ellipse cx="17.602" cy="23.978" rx="2.5" ry="2.62469" transform="rotate(19.1717 17.602 23.978)" fill="#FFDD35"/>
<ellipse cx="3.22327" cy="65.3339" rx="2.5" ry="2.62469" transform="rotate(19.1717 3.22327 65.3339)" fill="#FFDD35"/>
<ellipse cx="52.9183" cy="36.2569" rx="2.5" ry="2.62469" transform="rotate(19.1717 52.9183 36.2569)" fill="#FFDD35"/>
<ellipse cx="38.5396" cy="77.6128" rx="2.5" ry="2.62469" transform="rotate(19.1717 38.5396 77.6128)" fill="#FFDD35"/>
<ellipse cx="88.2346" cy="48.5359" rx="2.5" ry="2.62469" transform="rotate(19.1717 88.2346 48.5359)" fill="#FFDD35"/>
<ellipse cx="73.8559" cy="89.8917" rx="2.5" ry="2.62469" transform="rotate(19.1717 73.8559 89.8917)" fill="#FFDD35"/>
<ellipse cx="42.4495" cy="9.43959" rx="2.5" ry="2.62469" transform="rotate(19.1717 42.4495 9.43959)" fill="#FFDD35"/>
<ellipse cx="28.0707" cy="50.7956" rx="2.5" ry="2.62469" transform="rotate(19.1717 28.0707 50.7956)" fill="#FFDD35"/>
<ellipse cx="77.7659" cy="21.7185" rx="2.5" ry="2.62469" transform="rotate(19.1717 77.7659 21.7185)" fill="#FFDD35"/>
<ellipse cx="63.387" cy="63.0746" rx="2.5" ry="2.62469" transform="rotate(19.1717 63.387 63.0746)" fill="#FFDD35"/>
<ellipse cx="113.082" cy="33.9974" rx="2.5" ry="2.62469" transform="rotate(19.1717 113.082 33.9974)" fill="#FFDD35"/>
<ellipse cx="98.7034" cy="75.3535" rx="2.5" ry="2.62469" transform="rotate(19.1717 98.7034 75.3535)" fill="#FFDD35"/>
<ellipse cx="35.2602" cy="30.1175" rx="2.5" ry="2.62469" transform="rotate(19.1717 35.2602 30.1175)" fill="#FFDD35"/>
<ellipse cx="20.8814" cy="71.4733" rx="2.5" ry="2.62469" transform="rotate(19.1717 20.8814 71.4733)" fill="#FFDD35"/>
<ellipse cx="70.5765" cy="42.3964" rx="2.5" ry="2.62469" transform="rotate(19.1717 70.5765 42.3964)" fill="#FFDD35"/>
<ellipse cx="56.1978" cy="83.7522" rx="2.5" ry="2.62469" transform="rotate(19.1717 56.1978 83.7522)" fill="#FFDD35"/>
<ellipse cx="105.893" cy="54.6753" rx="2.5" ry="2.62469" transform="rotate(19.1717 105.893 54.6753)" fill="#FFDD35"/>
<ellipse cx="91.514" cy="96.0311" rx="2.5" ry="2.62469" transform="rotate(19.1717 91.514 96.0311)" fill="#FFDD35"/>
</svg>
