<svg width="19" height="20" viewBox="0 0 19 20" fill="none" xmlns="http://www.w3.org/2000/svg">
<path d="M2.05005 17L2.05005 3.7H3.55005L3.55005 17H2.05005ZM17.05 3.7V17H15.55L15.55 3.7H17.05ZM14.3 19.75H4.80005V18.25H14.3V19.75ZM17.05 17C17.05 18.5188 15.8188 19.75 14.3 19.75V18.25C14.9904 18.25 15.55 17.6904 15.55 17H17.05ZM3.55005 17C3.55005 17.6904 4.10969 18.25 4.80005 18.25V19.75C3.28127 19.75 2.05005 18.5188 2.05005 17H3.55005Z" fill="#FF5C00"/>
<path d="M7.75 9.1001V13.6001" stroke="#FF5C00" stroke-width="1.5" stroke-linecap="round"/>
<path d="M11.3501 9.1001V13.6001" stroke="#FF5C00" stroke-width="1.5" stroke-linecap="round"/>
<path d="M1 3.70007H18.1" stroke="#FF5C00" stroke-width="1.5" stroke-linecap="round"/>
<path d="M5.05005 3.7L5.22152 2.6712C5.38224 1.70683 6.21662 1 7.1943 1H9.55005H11.9058C12.8835 1 13.7179 1.70683 13.8786 2.6712L14.05 3.7" stroke="#FF5C00" stroke-width="1.5" stroke-linecap="round"/>
</svg>
