<svg width="40" height="40" viewBox="0 0 40 40" fill="none" xmlns="http://www.w3.org/2000/svg">
<path d="M15.8578 33.7755L15.5603 33.087L15.8578 33.7755ZM9.86434 36.3652L10.1618 37.0537L9.86434 36.3652ZM8.41602 11.167V35.9063H9.91602V11.167H8.41602ZM10.1618 37.0537L16.1552 34.464L15.5603 33.087L9.56685 35.6768L10.1618 37.0537ZM16.6511 34.3614H34.666V32.8614H16.6511V34.3614ZM37.416 31.6114V11.167H35.916V31.6114H37.416ZM34.666 8.41699H11.166V9.91699H34.666V8.41699ZM37.416 11.167C37.416 9.64821 36.1848 8.41699 34.666 8.41699V9.91699C35.3564 9.91699 35.916 10.4766 35.916 11.167H37.416ZM34.666 34.3614C36.1848 34.3614 37.416 33.1302 37.416 31.6114H35.916C35.916 32.3018 35.3564 32.8614 34.666 32.8614V34.3614ZM16.1552 34.464C16.3118 34.3963 16.4805 34.3614 16.6511 34.3614V32.8614C16.2759 32.8614 15.9047 32.9382 15.5603 33.087L16.1552 34.464ZM8.41602 35.9063C8.41602 36.8053 9.33658 37.4103 10.1618 37.0537L9.56685 35.6768C9.7319 35.6055 9.91602 35.7265 9.91602 35.9063H8.41602ZM9.91602 11.167C9.91602 10.4766 10.4757 9.91699 11.166 9.91699V8.41699C9.64723 8.41699 8.41602 9.64821 8.41602 11.167H9.91602Z" fill="white"/>
<path d="M15.2764 24.4448H23.6791" stroke="white" stroke-width="1.5" stroke-linecap="round"/>
<path d="M15.2764 18.3335H28.2625" stroke="white" stroke-width="1.5" stroke-linecap="round"/>
<path d="M2.58301 5.3335V30.0728H4.08301V5.3335H2.58301ZM28.833 2.5835H5.33301V4.0835H28.833V2.5835ZM31.583 8.3335V5.3335H30.083V8.3335H31.583ZM4.32882 31.2202L8.6305 29.3615L8.03552 27.9845L3.73384 29.8433L4.32882 31.2202ZM28.833 4.0835C29.5234 4.0835 30.083 4.64314 30.083 5.3335H31.583C31.583 3.81471 30.3518 2.5835 28.833 2.5835V4.0835ZM2.58301 30.0728C2.58301 30.9718 3.50357 31.5768 4.32882 31.2202L3.73384 29.8433C3.8989 29.772 4.08301 29.893 4.08301 30.0728H2.58301ZM4.08301 5.3335C4.08301 4.64314 4.64265 4.0835 5.33301 4.0835V2.5835C3.81422 2.5835 2.58301 3.81471 2.58301 5.3335H4.08301Z" fill="white"/>
</svg>
