<svg width="28" height="28" viewBox="0 0 28 28" fill="none" xmlns="http://www.w3.org/2000/svg">
<path d="M17.2041 13.9382C17.2041 15.7279 15.7721 17.208 14.0002 17.208C12.2283 17.208 10.7861 15.7279 10.7861 13.9382C10.7861 12.1486 12.2283 10.7914 14.0002 10.7914C15.7721 10.7914 17.2041 12.1486 17.2041 13.9382Z" stroke="#121219" stroke-width="2"/>
<path d="M16.7531 5.10326L15.7936 2.92945C15.6336 2.56707 15.2749 2.33325 14.8787 2.33325H13.0924C12.6963 2.33325 12.3375 2.56707 12.1776 2.92945L11.2181 5.10326C10.6046 6.49314 9.16456 7.32854 7.65349 7.17112L5.01857 6.89662C4.62759 6.85589 4.24902 7.048 4.05104 7.38759L3.24958 8.76235C3.04774 9.10857 3.07209 9.54185 3.31146 9.86327L4.84297 11.9198C5.76313 13.1554 5.76716 14.8474 4.85289 16.0874L3.30691 18.1841C3.0701 18.5053 3.0469 18.9365 3.24787 19.2812L4.04821 20.654C4.24764 20.996 4.63011 21.1882 5.0236 21.1441L7.63452 20.8512C9.15446 20.6806 10.6091 21.5168 11.2267 22.916L12.1776 25.0704C12.3375 25.4328 12.6963 25.6666 13.0924 25.6666H14.8787C15.2749 25.6666 15.6336 25.4328 15.7936 25.0704L16.7445 22.916C17.3621 21.5168 18.8167 20.6806 20.3367 20.8512L22.9537 21.1448C23.344 21.1886 23.7239 20.9997 23.9247 20.6621L24.7466 19.2796C24.951 18.936 24.931 18.5037 24.6958 18.1804L23.1601 16.069C22.2637 14.8367 22.2677 13.1661 23.1698 11.938L24.6913 9.86704C24.929 9.54345 24.9501 9.10906 24.7449 8.76394L23.9218 7.37956C23.7225 7.04435 23.3465 6.85559 22.9587 6.89599L20.3177 7.17112C18.8066 7.32854 17.3665 6.49314 16.7531 5.10326Z" stroke="#121219" stroke-width="2" stroke-miterlimit="10"/>
</svg>
